<?xml version="1.0" encoding="UTF-8"?><svg id="a" xmlns="http://www.w3.org/2000/svg" xmlns:xlink="http://www.w3.org/1999/xlink" viewBox="0 0 16.2 16.2"><defs><linearGradient id="b" x1="-304.26" y1="91.18" x2="-634.39" y2="-238.95" gradientTransform="translate(29.42 4.74) scale(.05 -.05)" gradientUnits="userSpaceOnUse"><stop offset="0" stop-color="#fff"/><stop offset="1" stop-color="#e6e6e6"/></linearGradient><linearGradient id="d" x1="1473.76" y1="455.26" x2="1827.26" y2="101.76" gradientTransform="translate(-41.42 16.46) scale(.03 -.03)" gradientUnits="userSpaceOnUse"><stop offset="0" stop-color="#000" stop-opacity=".24"/><stop offset="1" stop-color="#000" stop-opacity="0"/></linearGradient><linearGradient id="m" x1="-503.15" y1="-157.77" x2="-503.15" y2="-57.65" gradientTransform="translate(48.81 3.44) scale(.08 -.08)" gradientUnits="userSpaceOnUse"><stop offset="0" stop-color="#626262"/><stop offset="1" stop-color="#fff"/></linearGradient></defs><path id="c" d="M15.6,8.1c0,4.14-3.36,7.5-7.5,7.5S.6,12.24.6,8.1,3.96.6,8.1.6s7.5,3.36,7.5,7.5Z" style="fill:url(#b); stroke-width:0px;"/><path id="e" d="M8.1.6C3.96.6.6,3.96.6,8.1s3.36,7.5,7.5,7.5,7.5-3.36,7.5-7.5S12.24.6,8.1.6ZM8.1.99c3.92,0,7.11,3.19,7.11,7.11s-3.19,7.11-7.11,7.11S.99,12.02.99,8.1,4.18.99,8.1.99Z" style="fill:url(#d); stroke-width:0px;"/><path id="f" d="M7.56,1.64c0,.07-.05.14-.12.15h0c-.07,0-.14-.05-.15-.12,0-.07.05-.14.12-.15h0c.07,0,.14.05.15.12,0,0,0,0,0,0ZM6.88,1.73c.02.07-.03.14-.1.16h0c-.07.02-.14-.03-.16-.1s.03-.14.1-.16h0c.07-.02.14.03.16.1ZM6.23,1.9c.02.07-.02.15-.09.17h0c-.07.02-.15-.02-.17-.09-.02-.07.02-.15.09-.17h0c.07-.02.15.02.17.09ZM5.59,2.13c.03.07,0,.15-.07.18-.07.03-.15,0-.18-.07h0c-.03-.07,0-.15.07-.18.07-.03.15,0,.18.07h0ZM4.4,2.78c.04.06.03.14-.03.19h0c-.06.04-.14.03-.19-.03h0c-.04-.06-.03-.14.03-.19s.14-.03.19.03h0ZM3.86,3.19c.05.06.05.14,0,.19h0c-.06.05-.14.05-.19,0h0c-.05-.06-.05-.14,0-.19s.14-.05.19,0h0ZM3.37,3.66c.06.05.06.14,0,.19h0c-.05.06-.14.06-.19,0h0c-.06-.05-.06-.14,0-.19h0c.05-.06.14-.06.19,0h0ZM2.94,4.18c.06.04.07.13.03.19h0c-.04.06-.13.07-.19.03h0c-.06-.04-.07-.13-.03-.19h0c.04-.06.13-.07.19-.03h0ZM2.24,5.34c.07.03.1.11.07.18s-.11.1-.18.07-.1-.11-.07-.18h0c.03-.07.11-.1.18-.07ZM1.98,5.97c.07.02.11.1.09.17s-.1.11-.17.09h0c-.07-.02-.11-.1-.09-.17s.1-.11.17-.09h0ZM1.79,6.62c.07.02.12.09.1.16h0c-.02.07-.09.12-.16.1h0c-.07-.02-.12-.09-.1-.16.02-.07.09-.12.16-.1h0ZM1.67,7.29c.07,0,.13.07.12.15,0,.07-.07.13-.15.12h0c-.07,0-.13-.07-.12-.15,0-.07.07-.13.15-.12h0ZM1.64,8.64c.07,0,.14.05.15.12h0c0,.07-.05.14-.12.15h0c-.07,0-.14-.05-.15-.12h0c0-.07.05-.14.12-.15h0ZM1.73,9.32c.07-.02.14.03.16.1h0c.02.07-.03.14-.1.16s-.14-.03-.16-.1h0c-.02-.07.03-.14.1-.16,0,0,0,0,0,0ZM1.9,9.97c.07-.02.15.02.17.09.02.07-.02.15-.09.17s-.15-.02-.17-.09c-.02-.07.02-.15.09-.17h0ZM2.13,10.61c.07-.03.15,0,.18.07.03.07,0,.15-.07.18h0c-.07.03-.15,0-.18-.07-.03-.07,0-.15.07-.18h0ZM2.78,11.8c.06-.04.14-.03.19.03h0c.04.06.03.14-.03.19-.06.04-.14.03-.19-.03-.04-.06-.03-.14.03-.19ZM3.19,12.34c.06-.05.14-.05.19,0h0c.05.06.05.14,0,.19s-.14.05-.19,0c-.05-.06-.05-.14,0-.19ZM3.66,12.83c.05-.06.14-.06.19,0h0c.06.05.06.14,0,.19s-.14.06-.19,0h0c-.06-.05-.06-.14,0-.19ZM4.18,13.26c.04-.06.13-.07.19-.03h0c.06.04.07.13.03.19-.04.06-.13.07-.19.03h0c-.06-.04-.07-.13-.03-.19ZM5.34,13.96c.03-.07.11-.1.18-.07s.1.11.07.18h0c-.03.07-.11.1-.18.07h0c-.07-.03-.1-.11-.07-.18h0ZM5.97,14.22c.02-.07.1-.11.17-.09s.11.1.09.17h0c-.02.07-.1.11-.17.09s-.11-.1-.09-.17h0ZM6.62,14.41c.02-.07.09-.12.16-.1s.12.09.1.16h0c-.02.07-.09.12-.16.1s-.12-.09-.1-.16h0ZM7.29,14.53c0-.07.07-.13.15-.12.07,0,.13.07.12.15h0c0,.07-.07.13-.15.12h0c-.07,0-.13-.07-.12-.15h0ZM8.64,14.56c0-.07.05-.14.12-.15h0c.07,0,.14.05.15.12s-.05.14-.12.15h0c-.07,0-.14-.05-.15-.12ZM9.32,14.47c-.02-.07.03-.14.1-.16h0c.07-.02.14.03.16.1s-.03.14-.1.16h0c-.07.02-.14-.03-.16-.1ZM9.97,14.3c-.02-.07.02-.15.09-.17h0c.07-.02.15.02.17.09s-.02.15-.09.17h0c-.07.02-.15-.02-.17-.09ZM10.61,14.07c-.03-.07,0-.15.07-.18h0c.07-.03.15,0,.18.07h0c.03.07,0,.15-.07.18h0c-.07.03-.15,0-.18-.07h0ZM11.8,13.42c-.04-.06-.03-.14.03-.19h0c.06-.04.14-.03.19.03s.03.14-.03.19-.14.03-.19-.03ZM12.34,13.01c-.05-.06-.05-.14,0-.19s.14-.05.19,0,.05.14,0,.19-.14.05-.19,0ZM12.83,12.54c-.06-.05-.06-.14,0-.19s.14-.06.19,0,.06.14,0,.19-.14.06-.19,0ZM13.26,12.02c-.06-.04-.07-.13-.03-.19s.13-.07.19-.03.07.13.03.19-.13.07-.19.03ZM13.96,10.86c-.07-.03-.1-.11-.07-.18s.11-.1.18-.07h0c.07.03.1.11.07.18h0c-.03.07-.11.1-.18.07h0ZM14.22,10.23c-.07-.02-.11-.1-.09-.17s.1-.11.17-.09h0c.07.02.11.1.09.17s-.1.11-.17.09h0ZM14.41,9.58c-.07-.02-.12-.09-.1-.16s.09-.12.16-.1h0c.07.02.12.09.1.16h0c-.02.07-.09.12-.16.1h0ZM14.53,8.91c-.07,0-.13-.07-.12-.15,0-.07.07-.13.15-.12h0c.07,0,.13.07.12.15h0c0,.07-.07.13-.15.12h0ZM14.56,7.56c-.07,0-.14-.05-.15-.12h0c0-.07.05-.14.12-.15.07,0,.14.05.15.12h0c0,.07-.05.14-.12.15ZM14.47,6.88c-.07.02-.14-.03-.16-.1h0c-.02-.07.03-.14.1-.16h0c.07-.02.14.03.16.1h0c.02.07-.03.14-.1.16ZM14.3,6.23c-.07.02-.15-.02-.17-.09h0c-.02-.07.02-.15.09-.17s.15.02.17.09h0c.02.07-.02.15-.09.17ZM14.07,5.59c-.07.03-.15,0-.18-.07h0c-.03-.07,0-.15.07-.18h0c.07-.03.15,0,.18.07h0c.03.07,0,.15-.07.18h0ZM13.42,4.4c-.06.04-.14.03-.19-.03s-.03-.14.03-.19h0c.06-.04.14-.03.19.03s.03.14-.03.19h0ZM13.01,3.86c-.06.05-.14.05-.19,0s-.05-.14,0-.19h0c.06-.05.14-.05.19,0,.05.06.05.14,0,.19h0ZM12.54,3.37c-.05.06-.14.06-.19,0-.06-.05-.06-.14,0-.19h0c.05-.06.14-.06.19,0,.06.05.06.14,0,.19h0ZM12.02,2.94c-.04.06-.13.07-.19.03-.06-.04-.07-.13-.03-.19h0c.04-.06.13-.07.19-.03.06.04.07.13.03.19h0ZM10.86,2.24c-.03.07-.11.1-.18.07s-.1-.11-.07-.18c.03-.07.11-.1.18-.07s.1.11.07.18ZM10.23,1.98c-.02.07-.1.11-.17.09s-.11-.1-.09-.17h0c.02-.07.1-.11.17-.09s.11.1.09.17h0ZM9.58,1.79c-.02.07-.09.12-.16.1-.07-.02-.12-.09-.1-.16h0c.02-.07.09-.12.16-.1.07.02.12.09.1.16h0ZM8.91,1.67c0,.07-.07.13-.15.12h0c-.07,0-.13-.07-.12-.15h0c0-.07.07-.13.15-.12h0c.07,0,.13.07.12.15h0ZM7.84,12.84v1.98h.51v-1.98h-.51ZM10.84,12.4l-.39.22.81,1.4.39-.22-.81-1.4ZM5.35,12.4l-.81,1.4.39.22.81-1.4-.39-.22ZM12.63,10.45l-.22.39,1.4.81.22-.39-1.4-.81ZM3.57,10.45l-1.4.81.22.39,1.4-.81-.22-.39ZM12.84,7.84v.51h1.98v-.51h-1.98ZM1.38,7.84v.51h1.98v-.51h-1.98ZM13.81,4.54l-1.4.81.22.39,1.4-.81-.22-.39ZM2.39,4.54l-.22.39,1.4.81.22-.39-1.4-.81ZM11.26,2.17l-.81,1.4.39.22.81-1.4-.39-.22ZM4.93,2.17l-.39.23.81,1.4.39-.22-.81-1.4ZM7.84,1.38v1.98h.51v-1.98h-.51Z" style="fill:#000; stroke-width:0px;"/><g id="g"><path id="h" d="M7.72,4.83v4.89h.75v-4.89l-.37-1.38-.37,1.38Z" style="fill:navy; stroke-width:0px;"/></g><g id="i"><path id="j" d="M7.78,2.7l.31-1.2.31,1.2v7.02h-.63V2.7Z" style="fill:green; stroke-width:0px;"/></g><g id="k"><path id="l" d="M8.1,2.88l-.64,1.2h.52v3.74c-.11.05-.18.15-.18.28,0,.12.07.23.18.28v1.91h.24v-1.92c.11-.05.18-.15.18-.27,0-.12-.07-.23-.18-.27v-3.75h.52l-.64-1.2Z" style="fill:#fe0000; stroke-width:0px;"/></g><path id="n" d="M8.1,0C3.63,0,0,3.63,0,8.1c0,4.47,3.63,8.1,8.1,8.1s8.1-3.63,8.1-8.1C16.2,3.63,12.57,0,8.1,0ZM8.1.84c4.01,0,7.26,3.25,7.26,7.26,0,4.01-3.25,7.26-7.26,7.26S.84,12.11.84,8.1c0-4.01,3.25-7.26,7.26-7.26Z" style="fill:url(#m); stroke-width:0px;"/><g id="o"><path id="p" d="M8.1.96C4.16.96.96,4.16.96,8.1s3.2,7.14,7.14,7.14c3.94,0,7.14-3.2,7.14-7.14S12.04.96,8.1.96Z" style="fill:none; stroke-width:0px;"/><path id="q" d="M9.03,14.95h-.1s.01.1.01.1h.09s0,0,0,0h-.09s.01.11.01.11h.11s0,0,0,0l-.13.02-.03-.24.12-.02v.02ZM8.73,14.97s.06,0,.08.02c.02.02.04.05.04.09,0,.05,0,.08-.02.1-.02.02-.04.03-.08.03h-.05s-.02-.24-.02-.24h.05ZM8.71,14.99l.02.21h.03c.06,0,.08-.05.08-.12,0-.03,0-.05-.02-.06s-.02-.02-.03-.03c-.01,0-.03,0-.05,0h-.03ZM8.61,15.16h-.1s-.02.08-.02.08h-.02s.07-.25.07-.25h.03s.1.24.1.24h-.02s-.03-.06-.03-.06ZM8.61,15.14l-.05-.14-.04.15h.09ZM8.44,15.24h-.02s-.01-.12-.01-.12c0-.05-.01-.08-.01-.11l-.06.2h-.02s-.07-.19-.07-.19c0,.02,0,.05,0,.09h0s0,.13,0,.13h-.02s.02-.25.02-.25h.03s.07.19.07.19l.05-.19h.03s.03.24.03.24ZM7.99,14.99s.03,0,.04,0c.01,0,.02.01.03.02h-.01s-.02,0-.03,0c0,0-.02,0-.03,0-.02,0-.03,0-.04.01,0,0-.01.02-.01.03,0,0,0,.02,0,.02,0,0,0,.01.02.02,0,0,.02,0,.03.01.02,0,.03.01.04.02,0,0,.02.01.02.02s0,.02,0,.03c0,.01,0,.03-.01.04,0,.01-.02.02-.03.02-.01,0-.03,0-.04,0-.03,0-.06-.01-.08-.03h.01s.02,0,.03,0c.01,0,.02,0,.04,0,.02,0,.03,0,.04-.01.01,0,.02-.02.02-.04,0-.01,0-.02,0-.02,0,0,0-.01-.02-.02,0,0-.02,0-.03-.01-.03,0-.04-.02-.05-.03-.01-.01-.02-.02-.02-.04,0-.01,0-.02,0-.03,0,0,.02-.02.03-.02.01,0,.02,0,.04,0ZM7.81,14.99s.03,0,.04,0c.01,0,.02.01.03.02h-.01s-.02,0-.03,0-.02,0-.03,0c-.02,0-.03,0-.04,0,0,0-.01.02-.02.03,0,0,0,.02,0,.02,0,0,0,.01.02.02,0,0,.02,0,.03.01.02,0,.03.01.04.02,0,0,.02.01.02.02,0,0,0,.02,0,.03s0,.03-.01.04c0,.01-.02.02-.03.02-.01,0-.03,0-.04,0-.03,0-.06-.01-.08-.03h.01s.02,0,.03,0c.01,0,.02,0,.04,0,.02,0,.03,0,.04-.01.01,0,.02-.02.02-.04,0-.01,0-.02,0-.03,0,0,0-.01-.02-.02,0,0-.02-.01-.03-.02-.02,0-.04-.02-.05-.03-.01-.01-.02-.02-.01-.04,0-.01,0-.02.01-.03,0,0,.02-.02.03-.02.01,0,.02,0,.04,0ZM7.66,15.23h-.02s.02-.25.02-.25h.02s-.02.25-.02.25ZM7.54,15.22h-.03s-.03-.23-.03-.23l-.07.22h-.03s-.03-.25-.03-.25h.02s.03.23.03.23l.07-.22h.02s.03.23.03.23l.07-.22h.02s-.08.24-.08.24ZM7.25,14.94s.03,0,.04.01c.01,0,.02.01.03.02h-.01s-.02,0-.03,0c0,0-.02,0-.03,0-.02,0-.03,0-.04,0-.01,0-.02.02-.02.03,0,0,0,.02,0,.02,0,0,0,.01.02.02,0,0,.02.01.03.02.02,0,.03.01.04.02s.02.02.02.03c0,0,0,.02,0,.04,0,.01,0,.03-.01.04s-.02.02-.03.02c-.01,0-.03,0-.04,0-.03,0-.06-.02-.07-.04h.01s.02,0,.03.01c0,0,.02,0,.03.01.02,0,.03,0,.04,0,.01,0,.02-.02.02-.04,0-.01,0-.02,0-.03,0,0,0-.01-.02-.02,0,0-.02-.01-.03-.02-.02-.01-.04-.02-.05-.03,0-.01-.01-.03-.01-.04,0-.01,0-.02.01-.03,0,0,.02-.01.03-.02.01,0,.02,0,.04,0Z" style="fill:#000; stroke-width:0px;"/></g></svg>